<?xml version="1.0" encoding="UTF-8"?>
<svg version="1.1" xmlns="http://www.w3.org/2000/svg" width="1024" height="1024">
<path d="M0 0 C1.05960938 0.26167969 2.11921875 0.52335937 3.2109375 0.79296875 C5.8278661 1.47157058 8.40925466 2.22820611 11 3 C12.14984375 3.30808594 13.2996875 3.61617188 14.484375 3.93359375 C20.37042459 5.52928441 25.86350104 7.13563934 31.21875 10.07421875 C33.07042156 11.03660068 34.9002963 11.70501125 36.875 12.375 C41.98901795 14.22920534 46.41812884 17.10654496 51 20 C51.87785156 20.53753906 52.75570313 21.07507813 53.66015625 21.62890625 C65.47452497 28.95551477 75.98471605 37.41638048 86 47 C86.93972656 47.886875 87.87945313 48.77375 88.84765625 49.6875 C105.79417706 66.08582112 119.29197176 86.58422974 126.88671875 108.8984375 C127.89320139 111.90448084 127.89320139 111.90448084 129.13671875 114.2421875 C130.27371306 116.55733428 130.1412247 118.45795548 130 121 C130.66 121 131.32 121 132 121 C140.56408275 153.06975667 142.3969913 186.71114819 133.54882812 218.93603516 C132.99581911 221.01572298 132.50136575 223.10288942 132.015625 225.19921875 C122.81896411 263.34769215 95.33736133 300.13370121 63 322 C62.29794434 322.47630859 61.59588867 322.95261719 60.87255859 323.44335938 C38.49488436 338.44738314 14.54991147 348.19041519 -12 353 C-13.22976563 353.22558594 -14.45953125 353.45117188 -15.7265625 353.68359375 C-60.29870668 360.48671049 -106.57738125 348.25099885 -143 322 C-150.01202001 316.72788331 -156.60248151 310.99825391 -163 305 C-163.49902832 304.5349707 -163.99805664 304.06994141 -164.51220703 303.59082031 C-187.67868445 281.82988525 -202.6460698 254.40087648 -211.41113281 224.03759766 C-211.89979606 222.34672559 -212.41177052 220.66261087 -212.9296875 218.98046875 C-222.29477063 186.0095833 -220.10119861 147.91258949 -208 116 C-207.75024414 115.33178223 -207.50048828 114.66356445 -207.24316406 113.97509766 C-198.90553041 91.90639169 -187.22397831 72.19936778 -171 55 C-169.97195847 53.77685569 -168.9504673 52.54815717 -167.9375 51.3125 C-165.25068296 48.15327557 -162.27385114 45.48313656 -159.11328125 42.8046875 C-157.71194059 41.60797884 -156.33355182 40.38382547 -154.98046875 39.1328125 C-137.69607118 23.16318357 -116.26656174 11.40220828 -94 4 C-93.01128906 3.67128906 -92.02257812 3.34257812 -91.00390625 3.00390625 C-87.36250064 1.88044738 -83.7014911 0.90031679 -80 0 C-79.24364258 -0.18626953 -78.48728516 -0.37253906 -77.70800781 -0.56445312 C-52.82380499 -6.41605921 -24.73763136 -6.59213679 0 0 Z " fill="#FCFCFC" transform="translate(549,326)"/>
<path d="M0 0 C4.64960289 4.64960289 6.41402649 9.28296812 6.8125 15.8125 C7.3835152 24.8121961 11.79296283 31.24300551 18.3125 37.3125 C25.00721028 42.64870576 31.63924757 45.24248857 39.8671875 47.375 C45.26403482 48.84352988 50.22908007 50.99979839 55.3125 53.3125 C56.07481934 53.65555176 56.83713867 53.99860352 57.62255859 54.35205078 C75.34065109 62.369887 90.80195409 71.34520275 105.3125 84.3125 C106.728812 85.52124903 108.14542833 86.72964166 109.5625 87.9375 C121.41858054 98.42652723 131.0071734 110.55748008 140.3125 123.3125 C140.84617187 124.02535156 141.37984375 124.73820313 141.9296875 125.47265625 C147.16097849 132.81060226 150.66878116 141.11115432 154.3125 149.3125 C154.66135254 150.09544434 155.01020508 150.87838867 155.36962891 151.68505859 C169.84389651 184.4278193 173.66220477 218.34098696 176.8125 253.75 C179.7296534 290.91442577 179.7296534 290.91442577 187.3125 327.3125 C187.70599998 328.93686518 188.0906562 330.56338612 188.46875 332.19140625 C194.32073025 357.14668317 202.50171043 381.0751326 213.3125 404.3125 C213.74626953 405.25544922 214.18003906 406.19839844 214.62695312 407.16992188 C220.72720883 420.46310825 220.72720883 420.46310825 227.96484375 433.15625 C229.45222306 435.5360569 230.79214855 437.96791148 232.125 440.4375 C238.3898175 452.0045719 244.82963488 463.32793276 252.03222656 474.34033203 C256.08983354 480.59078 260.03781647 486.91217026 263.99560547 493.22607422 C265.11866839 495.00540231 266.26231408 496.77171157 267.41015625 498.53515625 C269.6228329 502.00325227 271.17448678 504.63498058 272 508.6875 C271.01998734 512.42936652 269.59860108 513.29473727 266.3125 515.3125 C263.1955082 515.89311762 260.12877753 515.84937974 256.96549988 515.81586456 C256.01573938 515.82167833 255.06597887 515.82749209 254.08743775 515.83348203 C250.88640638 515.84814734 247.68613394 515.83416599 244.48510742 515.82043457 C242.1744634 515.82504088 239.8638223 515.83139198 237.55318737 515.83934355 C231.18917661 515.85609686 224.82540468 515.84776316 218.46139288 515.83539867 C212.30760024 515.82535323 206.15383223 515.83792591 200.0000464 515.84798814 C186.63382066 515.86906947 173.26767131 515.86721826 159.90143827 515.85567249 C148.20457817 515.84561808 136.5077461 515.8429798 124.81088257 515.84776306 C124.03559769 515.8480686 123.26031282 515.84837414 122.46153446 515.84868894 C119.31455673 515.84993426 116.16757901 515.85120785 113.02060131 515.852528 C83.48761981 515.86476944 53.95468702 515.85366153 24.42171304 515.83214041 C-1.82793355 515.81315738 -28.07750253 515.81485586 -54.32714844 515.83398438 C-83.80542918 515.85539374 -113.28366687 515.86390135 -142.76195431 515.85153532 C-145.90326372 515.85025241 -149.04457314 515.84900105 -152.18588257 515.84776306 C-152.95937722 515.84744675 -153.73287187 515.84713044 -154.52980576 515.84680455 C-166.22053537 515.84225086 -177.91123391 515.84758281 -189.60195923 515.85768127 C-202.89222006 515.86910404 -216.18239241 515.86628956 -229.47264218 515.8445583 C-236.25799468 515.83382997 -243.04317971 515.82997181 -249.82853317 515.84315491 C-256.03379099 515.85502892 -262.23874394 515.84859871 -268.4439739 515.8272447 C-270.69490486 515.82275742 -272.94586131 515.82509212 -275.19677603 515.83474785 C-278.24505563 515.84682616 -281.29227655 515.83452363 -284.34049988 515.81586456 C-285.66630359 515.82991156 -285.66630359 515.82991156 -287.01889122 515.84424233 C-291.08398293 515.79415044 -293.18989179 515.61567126 -296.73531055 513.45560026 C-298.6875 511.3125 -298.6875 511.3125 -299.26953125 508.51953125 C-298.52016261 504.39045975 -296.67332649 501.42405482 -294.375 498 C-293.69993408 496.95730957 -293.69993408 496.95730957 -293.01123047 495.89355469 C-291.58246408 493.69142839 -290.13604142 491.5016564 -288.6875 489.3125 C-286.89002404 486.56626653 -285.0999638 483.81525901 -283.3125 481.0625 C-282.85617187 480.36020264 -282.39984375 479.65790527 -281.9296875 478.93432617 C-260.43086745 445.68676028 -240.94817429 410.68000704 -227.6875 373.3125 C-227.38908203 372.48073242 -227.09066406 371.64896484 -226.78320312 370.79199219 C-219.53060734 350.42499672 -214.57620538 329.55902088 -210.6875 308.3125 C-210.52678009 307.45131561 -210.36606018 306.59013123 -210.20046997 305.70285034 C-208.79727715 297.79757751 -207.99329714 289.87872441 -207.30192947 281.88761139 C-207.09568973 279.51043382 -206.88272365 277.13393831 -206.6680603 274.75750732 C-206.05934732 268.00827134 -205.46035507 261.25820065 -204.87011719 254.50732422 C-200.64242058 206.27140929 -193.2822206 158.35584977 -163.6875 118.3125 C-162.53701172 116.73855469 -162.53701172 116.73855469 -161.36328125 115.1328125 C-155.61450776 107.40009038 -149.32648193 100.28688369 -142.6875 93.3125 C-141.99527344 92.55582031 -141.30304688 91.79914063 -140.58984375 91.01953125 C-120.1826373 69.43271749 -91.40063144 54.16816535 -63.20703125 45.5546875 C-51.67764089 42.00404339 -43.29235008 36.64800166 -36.6875 26.3125 C-35.09947467 22.41829776 -34.49149948 19.11921832 -34.375 14.9375 C-33.81265806 7.80157474 -30.91979711 3.09193854 -25.625 -1.625 C-17.40975717 -7.39314922 -8.00011607 -5.0233287 0 0 Z M-77.6875 94.3125 C-78.66460937 94.66699219 -79.64171875 95.02148438 -80.6484375 95.38671875 C-102.33788602 103.85451715 -122.92016847 116.89784706 -139.0859375 133.71484375 C-140.66810172 135.29314904 -142.31966462 136.66584425 -144.0625 138.0625 C-148.9652635 142.19920671 -152.75918752 147.27314964 -156.6875 152.3125 C-157.43257812 153.25351562 -158.17765625 154.19453125 -158.9453125 155.1640625 C-176.2747162 177.56548679 -186.82878942 202.75038734 -192.6875 230.3125 C-192.94176758 231.50456055 -192.94176758 231.50456055 -193.20117188 232.72070312 C-201.53757733 273.3650036 -192.22367072 316.24364187 -172.6875 352.3125 C-172.34879883 352.9401123 -172.01009766 353.56772461 -171.66113281 354.21435547 C-149.92442304 393.85856357 -111.16695854 422.68740749 -68.46484375 436.22265625 C-23.09528899 449.31273461 24.65055144 444.49453459 66.40527344 422.19482422 C70.82516455 419.74450242 75.09585637 417.09623525 79.3125 414.3125 C79.90224609 413.92481445 80.49199219 413.53712891 81.09960938 413.13769531 C89.66374367 407.43605519 97.32341992 401.037202 104.69921875 393.87451172 C106.31668884 392.30844428 107.95408894 390.7654371 109.59375 389.22265625 C122.69383144 376.72015653 132.77044084 362.23099413 141.3125 346.3125 C141.71098145 345.57161133 142.10946289 344.83072266 142.52001953 344.06738281 C148.70982355 332.34118486 152.61577901 320.52880677 155.73535156 307.66357422 C156.21582263 305.70632531 156.73930407 303.75969656 157.2734375 301.81640625 C165.53856239 271.66097534 161.80713363 239.17112038 154.3125 209.3125 C153.6525 209.3125 152.9925 209.3125 152.3125 209.3125 C152.23 208.19875 152.1475 207.085 152.0625 205.9375 C151.37911581 200.64588996 149.46410459 196.16351035 147.3125 191.3125 C146.85101562 190.21035156 146.38953125 189.10820312 145.9140625 187.97265625 C131.23739319 154.43109736 104.25632764 127.15562666 73.3125 108.3125 C72.42014648 107.76650146 72.42014648 107.76650146 71.50976562 107.20947266 C64.87510863 103.18384969 58.3300192 99.60979229 50.91015625 97.19921875 C48.3125 96.3125 48.3125 96.3125 45.140625 94.89453125 C36.93193679 91.32712645 27.97068547 89.46894812 19.3125 87.3125 C18.58724121 87.1259082 17.86198242 86.93931641 17.11474609 86.74707031 C-13.15524959 79.25989784 -48.8236732 83.66600651 -77.6875 94.3125 Z " fill="#FCFDFC" transform="translate(526.6875,237.6875)"/>
<path d="M0 0 C11.65134095 8.79860548 18.2195531 19.56428027 21.4609375 33.69726562 C22.58964998 38.6076839 22.58964998 38.6076839 26 42 C28.46335751 42.89419301 30.86022365 43.66529585 33.375 44.375 C45.31122226 47.92272929 56.8803116 52.37824217 68 58 C68 58.66 68 59.32 68 60 C68.99902344 60.23847656 69.99804688 60.47695313 71.02734375 60.72265625 C75.3262426 61.95846825 78.8188964 64.031925 82.5625 66.4375 C83.25577393 66.87779541 83.94904785 67.31809082 84.66333008 67.77172852 C91.20819382 72.00339221 97.33306418 76.6802746 103.34277344 81.63525391 C104.93998752 82.950579 106.55078844 84.24743037 108.1640625 85.54296875 C123.43317511 97.96083492 136.53835331 112.0275853 148 128 C149.04414062 129.41925781 149.04414062 129.41925781 150.109375 130.8671875 C162 147.33517699 162 147.33517699 162 153 C162.66 153 163.32 153 164 153 C170.27229067 165.32145638 175.03803037 177.87362389 179.32421875 191.01953125 C179.96279538 192.8909668 180.69757436 194.72877124 181.4375 196.5625 C186.10137076 208.81129742 188.83504235 222.61947818 189.75390625 235.65234375 C189.93053642 238.15094335 189.93053642 238.15094335 191 241 C191.20376996 242.79696096 191.36499503 244.59891242 191.5 246.40234375 C191.62375 247.98499023 191.62375 247.98499023 191.75 249.59960938 C191.87375 251.25186523 191.87375 251.25186523 192 252.9375 C192.1635527 255.11351754 192.33009885 257.28931268 192.5 259.46484375 C192.5721875 260.430271 192.644375 261.39569824 192.71875 262.39038086 C192.92605035 264.90579798 192.92605035 264.90579798 193.49723816 266.92428589 C194.33560754 270.38559702 194.40094748 273.93582313 194.61328125 277.48046875 C194.72482662 279.20667358 194.83716257 280.93282747 194.95019531 282.65893555 C195.03799255 284.01261734 195.03799255 284.01261734 195.12756348 285.39364624 C197.28914914 318.04892776 202.57854956 349.89119272 213 381 C213.50655566 382.74811366 214.00723561 384.49794884 214.5 386.25 C216.23323841 392.0211125 218.58118925 397.48680044 221 403 C221.46817139 404.07169434 221.46817139 404.07169434 221.94580078 405.16503906 C236.35423189 438.03791233 254.39972357 468.31180578 273.4375 498.6875 C274.96132512 501.12314552 276.4820374 503.56069671 278 506 C278.40863281 506.65564941 278.81726563 507.31129883 279.23828125 507.98681641 C280.47941788 509.98637205 281.70984975 511.99214209 282.9375 514 C283.30351318 514.58740967 283.66952637 515.17481934 284.04663086 515.7800293 C288.54584534 523.19799466 290.57046 529.5922269 290.5 538.25 C290.49355469 539.08192871 290.48710938 539.91385742 290.48046875 540.77099609 C290.16983006 551.31023116 286.57513634 559.44545168 279.21875 567.03515625 C265.5999548 579.09546256 249.9937629 579.58325702 232.7878418 579.45410156 C230.66772483 579.45297146 228.5476063 579.45361012 226.42749023 579.45587158 C220.7072288 579.45701329 214.98730688 579.4335922 209.26712394 579.40557575 C203.27606692 579.38047116 197.28500104 579.37821297 191.29389954 579.37347412 C179.96468995 579.3610709 168.63563584 579.32828526 157.30649453 579.28807616 C144.40198655 579.24327573 131.49747091 579.22135063 118.59290445 579.20129442 C92.0618503 579.15955025 65.53093389 579.08924995 39 579 C38.85071045 579.93408691 38.7014209 580.86817383 38.54760742 581.83056641 C37.05857823 590.44874606 33.69486664 597.43746054 28 604 C27.25492188 604.88816406 26.50984375 605.77632812 25.7421875 606.69140625 C13.05404935 621.3086187 -4.49375342 630.74740528 -23.98925781 632.14233398 C-45.20736938 633.12613741 -63.32667458 627.4669046 -79.5078125 613.3984375 C-89.44205771 603.8378943 -95.74025259 593.06208489 -100 580 C-101.09368078 579.99761165 -102.18736156 579.99522329 -103.31418419 579.99276257 C-129.93894736 579.93394017 -156.56362023 579.8580403 -183.18828392 579.76428509 C-196.06382808 579.71933999 -208.93934467 579.67992227 -221.81494141 579.65356445 C-233.03870072 579.63057406 -244.26237265 579.59716421 -255.48606265 579.55129844 C-261.42764556 579.52738045 -267.369142 579.50864227 -273.31077194 579.50238609 C-278.90695377 579.49632891 -284.50291441 579.47630572 -290.09901428 579.44572449 C-292.14919625 579.4369545 -294.19940713 579.43321952 -296.24960709 579.43499184 C-316.14578105 579.44675735 -316.14578105 579.44675735 -324 576 C-325.03511719 575.55140625 -326.07023437 575.1028125 -327.13671875 574.640625 C-337.43921385 569.0239508 -344.33858001 562.25725753 -348.25 551 C-351.68140375 538.96958049 -351.04261695 528.0240914 -345 517 C-341.14246295 510.44896395 -336.97512956 504.09569393 -332.80029297 497.74414062 C-323.00264245 482.809832 -313.8092153 467.53651379 -305 452 C-304.10547119 450.4229126 -304.10547119 450.4229126 -303.19287109 448.81396484 C-294.28420455 432.98837743 -286.58499044 416.9257728 -280 400 C-279.55640137 398.86272461 -279.11280273 397.72544922 -278.65576172 396.55371094 C-272.26642246 379.95856592 -267.52566132 363.41687266 -264 346 C-263.77473633 344.93040039 -263.54947266 343.86080078 -263.31738281 342.75878906 C-258.59009714 320.30923983 -256.25279225 297.84214392 -254.5 275 C-249.23696373 206.83556911 -231.18974112 146.67352583 -182 97 C-181.41017334 96.39913574 -180.82034668 95.79827148 -180.21264648 95.17919922 C-166.31697397 81.12084019 -149.46847911 69.18567216 -132 60 C-131.38479492 59.67193359 -130.76958984 59.34386719 -130.13574219 59.00585938 C-117.39196635 52.24280025 -103.97889792 46.22409625 -89.9453125 42.703125 C-87.43170242 41.79459124 -85.91950279 40.88320967 -84 39 C-82.86083289 36.00789152 -82.86083289 36.00789152 -82.125 32.5625 C-78.12534086 17.5676389 -70.6823137 6.10830891 -57.62109375 -2.53125 C-39.20495534 -12.8508745 -17.39973385 -11.20841751 0 0 Z M-46.73828125 33.18359375 C-49.3569273 36.95347119 -50.22274127 39.71145686 -50.4375 44.3125 C-51.20642368 53.68840804 -55.40451196 60.41537767 -62 67 C-67.47714459 70.85578073 -73.26017501 73.14378096 -79.5793457 75.20288086 C-109.08529322 84.91916111 -134.29295955 99.8257739 -157 121 C-158.18529297 122.08667969 -158.18529297 122.08667969 -159.39453125 123.1953125 C-186.04212497 148.59447291 -203.49566173 184.00080247 -212.1875 219.375 C-212.54485229 220.82592041 -212.54485229 220.82592041 -212.90942383 222.30615234 C-216.45846212 237.43593538 -218.24803975 252.6481183 -219.61328125 268.1015625 C-219.68239904 268.88199291 -219.75151684 269.66242332 -219.82272911 270.46650314 C-220.47112898 277.81326208 -221.107562 285.16101501 -221.72143555 292.51074219 C-224.14578811 321.41490698 -227.64548459 350.1153603 -236 378 C-236.19416504 378.6609668 -236.38833008 379.32193359 -236.58837891 380.00292969 C-237.97456149 384.69728369 -239.46055892 389.35384263 -241 394 C-241.24975586 394.75861328 -241.49951172 395.51722656 -241.75683594 396.29882812 C-252.03393499 427.26849502 -266.56443291 456.34216347 -283.35791016 484.26269531 C-284.90435749 486.84056737 -286.43024159 489.42931012 -287.94921875 492.0234375 C-295.70386192 505.2014521 -304.07181255 517.96181248 -312.51635742 530.70361328 C-314.89509646 534.38543316 -315.53219686 536.56502615 -315 541 C-312.18046375 544.14609245 -309.91282178 545.25042894 -305.79402447 545.50139666 C-304.08047957 545.52251173 -302.36657869 545.52152007 -300.65299988 545.50336456 C-299.22835912 545.51208521 -299.22835912 545.51208521 -297.77493775 545.52098203 C-294.57390638 545.53564734 -291.37363394 545.52166599 -288.17260742 545.50793457 C-285.8619634 545.51254088 -283.5513223 545.51889198 -281.24068737 545.52684355 C-274.87667661 545.54359686 -268.51290468 545.53526316 -262.14889288 545.52289867 C-255.99510024 545.51285323 -249.84133223 545.52542591 -243.6875464 545.53548814 C-230.32132066 545.55656947 -216.95517131 545.55471826 -203.58893827 545.54317249 C-191.89207817 545.53311808 -180.1952461 545.5304798 -168.49838257 545.53526306 C-167.33545526 545.53572137 -167.33545526 545.53572137 -166.14903446 545.53618894 C-163.00205673 545.53743426 -159.85507901 545.53870785 -156.70810131 545.540028 C-127.17511981 545.55226944 -97.64218702 545.54116153 -68.10921304 545.51964041 C-41.85956645 545.50065738 -15.60999747 545.50235586 10.63964844 545.52148438 C40.11792918 545.54289374 69.59616687 545.55140135 99.07445431 545.53903532 C102.21576372 545.53775241 105.35707314 545.53650105 108.49838257 545.53526306 C109.27187722 545.53494675 110.04537187 545.53463044 110.84230576 545.53430455 C122.53303537 545.52975086 134.22373391 545.53508281 145.91445923 545.54518127 C159.20472006 545.55660404 172.49489241 545.55378956 185.78514218 545.5320583 C192.57049468 545.52132997 199.35567971 545.51747181 206.14103317 545.53065491 C212.34629099 545.54252892 218.55124394 545.53609871 224.7564739 545.5147447 C227.00740486 545.51025742 229.25836131 545.51259212 231.50927603 545.52224785 C234.55755563 545.53432616 237.60477655 545.52202363 240.65299988 545.50336456 C241.53686902 545.51272923 242.42073816 545.52209389 243.33139122 545.53174233 C247.40180885 545.48158481 249.49778126 545.30837708 253.04121876 543.13260221 C255.18365753 541.13378344 255.18365753 541.13378344 255.6875 538.375 C254.62817698 533.17468698 251.8763523 529.41436432 249 525 C247.64391414 522.8630413 246.29500596 520.72163112 244.94580078 518.58032227 C243.39533069 516.1206011 241.84028399 513.66380979 240.28515625 511.20703125 C216.56977165 473.67245156 216.56977165 473.67245156 209.53515625 459.09375 C208.41998797 456.84638797 207.27545822 454.65922356 206.05859375 452.46875 C190.12445775 423.66851881 178.30763694 391.59050026 171.5300293 359.37133789 C170.92590894 356.66851843 170.22193865 353.99922553 169.51953125 351.3203125 C167.80763211 344.50223145 166.679885 337.64195448 165.6875 330.6875 C165.5846167 329.98033844 165.4817334 329.27317688 165.37573242 328.54458618 C163.76202636 317.31130753 162.5719423 306.0486389 161.51953125 294.75 C161.4565 294.07532999 161.39346874 293.40065998 161.32852745 292.70554543 C160.75365556 286.53662832 160.18460386 280.36724529 159.65585327 274.19418335 C158.41044615 259.66834611 156.91292399 245.25116819 154.5625 230.86328125 C154.36930176 229.66180954 154.17610352 228.46033783 153.97705078 227.22245789 C151.98356919 215.60152816 148.41405819 204.60895777 144.1875 193.625 C143.84275635 192.72724854 143.4980127 191.82949707 143.14282227 190.90454102 C134.56592149 168.85948694 123.15842889 149.31043695 107 132 C105.82820173 130.6502714 104.66125916 129.2963067 103.5 127.9375 C83.42911463 105.07772167 54.09746503 85.44874587 24.5625 77.5625 C12.04554052 74.00865559 0.6592916 68.99342228 -6 57.125 C-6.68528706 55.75918482 -7.35599581 54.38575902 -8 53 C-8.33 52.34 -8.66 51.68 -9 51 C-9.12928908 49.29338411 -9.22916898 47.58447636 -9.3125 45.875 C-9.87832921 39.2330356 -11.5661691 34.4338309 -16.3125 29.6875 C-27.27152294 22.80625304 -38.17969675 22.70225876 -46.73828125 33.18359375 Z " fill="#A0C894" transform="translate(543,208)"/>
<path d="M0 0 C1.05960938 0.26167969 2.11921875 0.52335937 3.2109375 0.79296875 C5.8278661 1.47157058 8.40925466 2.22820611 11 3 C12.14984375 3.30808594 13.2996875 3.61617188 14.484375 3.93359375 C20.37042459 5.52928441 25.86350104 7.13563934 31.21875 10.07421875 C33.07042156 11.03660068 34.9002963 11.70501125 36.875 12.375 C41.98901795 14.22920534 46.41812884 17.10654496 51 20 C51.87785156 20.53753906 52.75570313 21.07507813 53.66015625 21.62890625 C65.47452497 28.95551477 75.98471605 37.41638048 86 47 C86.93972656 47.886875 87.87945313 48.77375 88.84765625 49.6875 C105.79417706 66.08582112 119.29197176 86.58422974 126.88671875 108.8984375 C127.89320139 111.90448084 127.89320139 111.90448084 129.13671875 114.2421875 C130.27371306 116.55733428 130.1412247 118.45795548 130 121 C130.66 121 131.32 121 132 121 C140.56408275 153.06975667 142.3969913 186.71114819 133.54882812 218.93603516 C132.99581911 221.01572298 132.50136575 223.10288942 132.015625 225.19921875 C122.81896411 263.34769215 95.33736133 300.13370121 63 322 C62.29794434 322.47630859 61.59588867 322.95261719 60.87255859 323.44335938 C38.49488436 338.44738314 14.54991147 348.19041519 -12 353 C-13.22976563 353.22558594 -14.45953125 353.45117188 -15.7265625 353.68359375 C-60.29870668 360.48671049 -106.57738125 348.25099885 -143 322 C-150.01202001 316.72788331 -156.60248151 310.99825391 -163 305 C-163.49902832 304.5349707 -163.99805664 304.06994141 -164.51220703 303.59082031 C-187.67868445 281.82988525 -202.6460698 254.40087648 -211.41113281 224.03759766 C-211.89979606 222.34672559 -212.41177052 220.66261087 -212.9296875 218.98046875 C-222.29477063 186.0095833 -220.10119861 147.91258949 -208 116 C-207.75024414 115.33178223 -207.50048828 114.66356445 -207.24316406 113.97509766 C-198.90553041 91.90639169 -187.22397831 72.19936778 -171 55 C-169.97195847 53.77685569 -168.9504673 52.54815717 -167.9375 51.3125 C-165.25068296 48.15327557 -162.27385114 45.48313656 -159.11328125 42.8046875 C-157.71194059 41.60797884 -156.33355182 40.38382547 -154.98046875 39.1328125 C-137.69607118 23.16318357 -116.26656174 11.40220828 -94 4 C-93.01128906 3.67128906 -92.02257812 3.34257812 -91.00390625 3.00390625 C-87.36250064 1.88044738 -83.7014911 0.90031679 -80 0 C-79.24364258 -0.18626953 -78.48728516 -0.37253906 -77.70800781 -0.56445312 C-52.82380499 -6.41605921 -24.73763136 -6.59213679 0 0 Z M-67 12 C-68.20269531 12.25652344 -69.40539062 12.51304687 -70.64453125 12.77734375 C-95.10488668 18.30493322 -117.12399852 27.62094385 -137 43 C-137.928125 43.70511719 -138.85625 44.41023438 -139.8125 45.13671875 C-158.09551578 59.51333436 -173.00257337 77.52891823 -184 98 C-184.34369629 98.63808594 -184.68739258 99.27617187 -185.04150391 99.93359375 C-189.55530572 108.49096556 -192.9467744 117.2634398 -195.8125 126.5 C-196.0904541 127.38816406 -196.3684082 128.27632813 -196.65478516 129.19140625 C-201.18284027 144.51458729 -202.5549042 159.34778393 -202.4375 175.25 C-202.43379395 176.15241425 -202.43008789 177.05482849 -202.42626953 177.98458862 C-202.34807667 191.36519368 -201.80844056 204.09218074 -198 217 C-197.61328125 218.38566162 -197.61328125 218.38566162 -197.21875 219.79931641 C-189.25111969 247.84740391 -175.12952411 271.13738245 -155 292 C-154.26394531 292.78761719 -153.52789062 293.57523438 -152.76953125 294.38671875 C-131.33724678 316.75593369 -100.31482557 332.02350827 -70.01660156 337.62548828 C-68.25357997 337.95290658 -66.49713588 338.31534919 -64.7421875 338.68359375 C-22.65551844 346.33092084 20.68500323 333.38309206 55.22265625 309.47265625 C60.93529086 305.40174974 65.98179056 300.90212986 71 296 C72.3065577 294.90950729 73.6188019 293.82578003 74.9375 292.75 C100.93703968 269.93407743 115.44782617 235.99540627 122.36987305 202.95410156 C122.75303843 201.15778188 123.15978158 199.36600106 123.60864258 197.58496094 C125.38083417 190.16984146 125.26862546 182.73400679 125.20581055 175.15869141 C125.18748082 172.87260812 125.18530205 170.58693068 125.18554688 168.30078125 C126.06961911 157.02677645 126.06961911 157.02677645 123 147 C122.68076508 144.9427083 122.48838648 142.88386479 122.28125 140.8125 C122.18001957 138.9832467 122.18001957 138.9832467 121 138 C120.77088143 136.54478745 120.56822375 135.08541209 120.375 133.625 C113.96678584 97.63684075 88.53522729 63.30964039 59.09667969 42.39575195 C56.42698261 40.55218391 53.71640335 38.77377085 51 37 C49.66195312 36.09314453 49.66195312 36.09314453 48.296875 35.16796875 C15.50341658 13.42021115 -28.26818855 3.49552446 -67 12 Z " fill="#A3CB9A" transform="translate(549,326)"/>
<path d="M0 0 C3.04396572 1.12739471 4.07687649 2.10810757 6 4.8125 C10.37868868 10.31256017 17.99201331 11.99848105 24.42578125 14.140625 C32.49958847 16.93432992 38.079365 20.15873 42 28 C42.38929688 27.48050781 42.77859375 26.96101563 43.1796875 26.42578125 C50.25237263 17.60936961 58.75037815 15.00935789 69.22485352 11.94897461 C76.07509297 9.85186218 81.01754526 6.9736821 85 1 C85.66 1 86.32 1 87 1 C87.788879 12.69293987 86.40188223 23.02315459 78.8125 32.375 C74.02894401 37.31420315 68.26742894 40.91701405 62.5 44.59375 C61.71625 45.0990625 60.9325 45.604375 60.125 46.125 C59.42632813 46.56070313 58.72765625 46.99640625 58.0078125 47.4453125 C53.17690687 51.18597484 51.56855656 54.54370286 50.78613281 60.43237305 C50.64449707 61.64147339 50.64449707 61.64147339 50.5 62.875 C47.5203915 84.22409898 40.79034919 107.97826167 23.4609375 122.26171875 C5.11284621 135.22187847 -19.06188521 139.65635247 -41 136 C-40.07463086 139.02848084 -39.06566808 142.01799897 -38 145 C-37.65195312 145.98613281 -37.65195312 145.98613281 -37.296875 146.9921875 C-34.9701533 152.48963779 -31.01670438 156.23211393 -26.62109375 160.14404297 C-25.16796875 161.484375 -25.16796875 161.484375 -23 164 C-23.17578125 166.328125 -23.17578125 166.328125 -24 168 C-35.45447447 168.57850881 -44.50606462 168.24696769 -55 163 C-55.80695313 162.62746094 -56.61390625 162.25492188 -57.4453125 161.87109375 C-63.87624912 158.65562544 -68.8987549 154.00423251 -74 149 C-74.74121094 148.29488281 -75.48242188 147.58976563 -76.24609375 146.86328125 C-81.38270884 141.61679204 -84.72534035 136.02335056 -88.1875 129.625 C-93.38267779 120.2024005 -99.38175349 114.28395317 -108 108 C-109.276736 107.02173884 -110.55276492 106.04255426 -111.828125 105.0625 C-131.27336537 90.44995976 -153.65594883 80.31884599 -176 71 C-177.14807129 70.50886719 -178.29614258 70.01773438 -179.47900391 69.51171875 C-181.18515869 68.80982422 -181.18515869 68.80982422 -182.92578125 68.09375 C-183.94712158 67.66771484 -184.96846191 67.24167969 -186.02075195 66.80273438 C-189.40367932 65.89123186 -191.62357223 66.1871155 -195 67 C-195.49029622 59.76813075 -195.49029622 59.76813075 -193.125 56.0625 C-189.6871493 52.72576256 -187.39281273 52.8630167 -182.66699219 52.91781616 C-177.81012633 53.06748135 -172.97041371 53.41243944 -168.125 53.76953125 C-167.0016626 53.85120041 -165.8783252 53.93286957 -164.72094727 54.01701355 C-162.35077619 54.19090483 -159.98074153 54.3666645 -157.61083984 54.54418945 C-154.03930569 54.80957931 -150.46701634 55.0622342 -146.89453125 55.31445312 C-131.49003145 56.43873293 -116.37311532 57.88640005 -101.5 62.25 C-99.99882461 62.6840322 -98.49751417 63.11759745 -96.99609375 63.55078125 C-95.80669189 63.89810303 -95.80669189 63.89810303 -94.59326172 64.25244141 C-91.72541635 65.07915413 -88.85022234 65.87576615 -85.97265625 66.66796875 C-75.57918951 69.53295739 -65.23983846 72.49188617 -54.9765625 75.79394531 C-46.46138895 78.52157595 -37.87309249 80.97724305 -29.25732422 83.36572266 C-27.34379074 83.90339949 -25.4384363 84.47005356 -23.53515625 85.04296875 C-9.84365996 88.95745024 3.18095072 87.91297213 15.73828125 81.35546875 C18.66818385 79.5995513 20.79176748 77.59792061 23 75 C23.680625 74.236875 24.36125 73.47375 25.0625 72.6875 C29.59782295 66.39656817 31.7930112 61.32823163 31.43359375 53.41015625 C31.16919307 50.82867817 31.16919307 50.82867817 29.125 48.6875 C28.09375 48.130625 27.0625 47.57375 26 47 C13.47975467 39.86738637 3.84040415 32.32801762 -0.375 17.9375 C-1.3351545 11.88852662 -1.70239927 5.93796866 0 0 Z " fill="#29486D" transform="translate(561,428)"/>
<path d="M0 0 C4.17249089 0.36105627 7.69896608 1.5253657 11.53515625 3.15234375 C12.5811499 3.59384766 13.62714355 4.03535156 14.70483398 4.49023438 C15.81286377 4.96783203 16.92089355 5.44542969 18.0625 5.9375 C19.2162915 6.43185547 20.37008301 6.92621094 21.55883789 7.43554688 C43.74457887 17.01252169 65.76841418 26.96967482 84.36474609 42.66015625 C85.99154483 43.99307227 87.66130139 45.2338159 89.36328125 46.46875 C97.08572666 52.24478712 101.40645625 58.46087398 105.96630859 66.92822266 C111.29992077 76.7230999 118.37596641 83.97487482 127 91 C126.67 91.66 126.34 92.32 126 93 C115.08698516 92.57915235 104.68441211 91.25907118 94 89 C93.505 94.94 93.505 94.94 93 101 C85.78942451 100.83976499 80.56511656 97.39956118 75 93 C71.93133806 89.73595509 69.32892574 86.2038952 67.01513672 82.36669922 C63.57729534 76.99718851 59.31715443 74.29789887 53.875 71.125 C41.21921414 63.43365836 28.58600551 54.31905138 20 42 C20 41.34 20 40.68 20 40 C19.34 40 18.68 40 18 40 C12.19638401 33.03315926 7.75025581 25.0355907 3.5 17.0625 C3.066875 16.2583667 2.63375 15.4542334 2.1875 14.62573242 C0.02657011 10.47572545 -1.82515696 6.77175791 -2 2 C-1.34 1.34 -0.68 0.68 0 0 Z " fill="#E8ECEE" transform="translate(369,493)"/>
<path d="M0 0 C8.86640901 0.3747671 17.10080741 2.78032469 25.5625 5.25 C26.99068296 5.66012948 28.41906968 6.06955007 29.84765625 6.47827148 C33.90174684 7.64096555 37.95121788 8.81895286 42 10 C43.03624512 10.30115723 44.07249023 10.60231445 45.14013672 10.91259766 C49.76526363 12.25804401 54.3859143 13.61716408 59 15 C58.36446131 22.62646426 57.46069373 31.07861253 54 38 C34.01123048 33.88992095 14.41009259 28.27718345 -5 22 C-3.60695059 14.59225491 -1.88100377 7.29829463 0 0 Z " fill="#2B4A6E" transform="translate(475,435)"/>
<path d="M0 0 C7.70701652 0.56268041 14.9958444 2.34039103 22.44140625 4.32861328 C24.5200269 4.88031549 26.60333277 5.41109497 28.6875 5.94140625 C30.0107484 6.29041132 31.33367824 6.64062697 32.65625 6.9921875 C33.85056641 7.30526855 35.04488281 7.61834961 36.27539062 7.94091797 C37.17451172 8.29041504 38.07363281 8.63991211 39 9 C40.21151564 12.63454691 39.65868046 13.92121744 38.56640625 17.54296875 C38.24736328 18.61611328 37.92832031 19.68925781 37.59960938 20.79492188 C37.08624023 22.47424805 37.08624023 22.47424805 36.5625 24.1875 C36.05493164 25.88422852 36.05493164 25.88422852 35.53710938 27.61523438 C34.69908969 30.41256769 33.85310671 33.207238 33 36 C26.76733828 35.36207888 21.12303104 33.58328018 15.1875 31.625 C13.30625669 31.01220025 11.42474747 30.40021617 9.54296875 29.7890625 C8.17277588 29.34288574 8.17277588 29.34288574 6.77490234 28.88769531 C2.53462385 27.53122403 -1.7297893 26.25857618 -6 25 C-5.45034628 19.09122247 -3.75855798 13.72318315 -1.9375 8.0859375 C-1.11978206 5.3942826 -0.49364784 2.76648479 0 0 Z " fill="#29476D" transform="translate(500,471)"/>
<path d="M0 0 C2.80092449 0.49356832 5.54241357 1.05438503 8.3125 1.6875 C9.12904053 1.87103027 9.94558105 2.05456055 10.78686523 2.24365234 C16.43940567 3.54975496 21.89251853 5.17914882 27.36328125 7.1171875 C31.19117572 8.39882328 35.04433155 9.20886631 39 10 C37.75363686 18.95413521 35.63287146 27.36009173 33 36 C25.95727073 35.24171204 19.21418987 33.35632598 12.375 31.5625 C11.16070312 31.24990234 9.94640625 30.93730469 8.6953125 30.61523438 C3.66704636 29.30555933 -1.20618099 28.02628191 -6 26 C-5.37154572 20.23262274 -4.35661151 14.70030217 -3 9.0625 C-2.82210938 8.29615234 -2.64421875 7.52980469 -2.4609375 6.74023438 C-1.12893801 1.12893801 -1.12893801 1.12893801 0 0 Z " fill="#2B4A6F" transform="translate(457,458)"/>
<path d="M0 0 C5.86156685 0.82739804 11.52835593 2.3287017 17.25 3.8125 C18.23613281 4.06064453 19.22226562 4.30878906 20.23828125 4.56445312 C26.71997706 6.24252062 32.84926326 8.35538631 39 11 C38.32930848 15.58894201 37.23877704 19.92547207 35.9375 24.375 C35.57527344 25.62023437 35.21304688 26.86546875 34.83984375 28.1484375 C34.56269531 29.08945312 34.28554688 30.03046875 34 31 C26.25768584 30.37593437 19.0576528 28.17578168 11.625 26 C10.32957254 25.62709848 9.03400056 25.25469865 7.73828125 24.8828125 C-1.69055451 22.15472274 -1.69055451 22.15472274 -4 21 C-4.24511382 16.08240396 -3.34512067 11.81474505 -2 7.125 C-1.80921875 6.43664062 -1.6184375 5.74828125 -1.421875 5.0390625 C-0.95476272 3.35745829 -0.4783358 1.67844615 0 0 Z " fill="#2E4C70" transform="translate(492,412)"/>
<path d="M0 0 C0.495 1.485 0.495 1.485 1 3 C-13.31053265 14.1866118 -29.46141453 22.21268203 -47 27 C-51.54650218 20.97895658 -55.25369152 15.82438068 -55 8 C-54.351521 8.01571045 -53.70304199 8.0314209 -53.03491211 8.04760742 C-35.98872211 8.40528312 -21.54100435 7.70572198 -5.609375 0.98828125 C-3 0 -3 0 0 0 Z " fill="#D8DFE6" transform="translate(575,556)"/>
<path d="M0 0 C13.85701938 3.03122299 27.41531156 6.93094065 41 11 C40.34 12.32 39.68 13.64 39 15 C33.06 14.01 33.06 14.01 27 13 C26.9071875 14.7325 26.9071875 14.7325 26.8125 16.5 C26.02678982 23.91662789 23.34173189 30.95752218 21 38 C21.66 38 22.32 38 23 38 C23 39.65 23 41.3 23 43 C14.28145298 41.18628766 5.82341982 38.82789759 -2.66699219 36.15771484 C-8.38896132 34.38521059 -14.10644922 33.06906996 -20 32 C-20.33 30.02 -20.66 28.04 -21 26 C-12.38564125 28.11823664 -3.81212696 30.36778348 4.75 32.6875 C5.9359375 33.00783203 7.121875 33.32816406 8.34375 33.65820312 C11.22943805 34.43780433 14.11484805 35.2184176 17 36 C17.11214844 35.04996094 17.22429687 34.09992188 17.33984375 33.12109375 C18.02373752 28.33383733 19.29713765 23.72342853 20.5625 19.0625 C20.79646484 18.18787109 21.03042969 17.31324219 21.27148438 16.41210938 C21.84405249 14.27374275 22.42029595 12.13644097 23 10 C21.70191406 9.88785156 20.40382813 9.77570313 19.06640625 9.66015625 C14.15891171 9.11487908 9.6386795 7.90842119 4.9375 6.4375 C4.16728516 6.20353516 3.39707031 5.96957031 2.60351562 5.72851562 C0.7335192 5.15938628 -1.13356895 4.58071506 -3 4 C-2.01 2.68 -1.02 1.36 0 0 Z " fill="#EDF0F3" transform="translate(473,458)"/>
<path d="M0 0 C7.59899376 0.46887408 15.11540973 1.55770487 22 5 C21.68954268 6.9169986 21.37655329 8.83358723 21.0625 10.75 C20.80146484 12.35101563 20.80146484 12.35101563 20.53515625 13.984375 C20.11295829 16.36347593 19.62797116 18.66915211 19 21 C11.4809044 20.29065136 3.37171484 19.24780989 -3 15 C-2.5547115 9.72684667 -1.91626837 4.98229776 0 0 Z " fill="#304D71" transform="translate(506,395)"/>
<path d="M0 0 C7.4069976 0.68301241 14.80641428 0.62215208 22.23635864 0.59545898 C23.81941684 0.59353596 25.40247565 0.59207398 26.98553467 0.59103394 C30.37336504 0.58789171 33.76116998 0.58165189 37.14899063 0.57296753 C42.51232965 0.55936027 47.87566047 0.55353339 53.23901367 0.54882812 C64.6207896 0.53776507 76.00254546 0.51822388 87.38430786 0.49780273 C99.68171816 0.47574849 111.97912022 0.45518064 124.27654636 0.44438457 C129.60206494 0.4394198 134.92754504 0.4295871 140.25304818 0.41595459 C143.5705421 0.40846768 146.88803083 0.40517397 150.20553207 0.40298843 C151.73691879 0.40112498 153.26830459 0.39754127 154.79968262 0.39205551 C162.35220791 0.36586412 169.76660977 0.44577631 177.25930786 1.49780273 C177.25930786 1.82780273 177.25930786 2.15780273 177.25930786 2.49780273 C106.96930786 2.49780273 36.67930786 2.49780273 -35.74069214 2.49780273 C-35.41069214 1.83780273 -35.08069214 1.17780273 -34.74069214 0.49780273 C-23.47372296 -1.13822293 -11.28000787 -1.22496094 0 0 Z " fill="#8AB183" transform="translate(265.7406921386719,784.502197265625)"/>
<path d="M0 0 C6.43160461 2.07119471 12.70737342 4.41235897 18.984375 6.9140625 C21.66873579 7.88071056 24.19188818 8.53198136 27 9 C28.20568053 13.67201205 28.09382426 18.21496292 28 23 C19.96940062 22.82154224 13.30933253 18.45921172 7.84375 12.74609375 C4.65365345 8.75171439 2.04185796 4.68426238 0 0 Z " fill="#2D4A69" transform="translate(434,571)"/>
<path d="M0 0 C0.495 1.485 0.495 1.485 1 3 C-5.1123231 7.62918587 -11.00281909 11.83146525 -18 15 C-18 14.34 -18 13.68 -18 13 C-23.54221131 11.7571453 -28.75890563 12.08899771 -34.375 12.4375 C-35.30183594 12.48970703 -36.22867188 12.54191406 -37.18359375 12.59570312 C-39.45613901 12.72455878 -41.72815099 12.85948311 -44 13 C-44 12.34 -44 11.68 -44 11 C-46.97 10.67 -49.94 10.34 -53 10 C-53 9.67 -53 9.34 -53 9 C-52.41210693 8.98541748 -51.82421387 8.97083496 -51.21850586 8.95581055 C-35.10051439 8.51101371 -20.65522624 7.33224091 -5.609375 0.98828125 C-3 0 -3 0 0 0 Z " fill="#DDE2E8" transform="translate(575,556)"/>
<path d="M0 0 C7.44302097 2.39690506 14.71837152 5.15262441 22 8 C21.67 8.99 21.34 9.98 21 11 C19.0390625 11.94921875 19.0390625 11.94921875 16.625 12.6875 C15.83351563 12.93886719 15.04203125 13.19023438 14.2265625 13.44921875 C12 14 12 14 9 14 C5.10494947 10.00351586 2.27703905 5.06008678 0 0 Z " fill="#2D5075" transform="translate(434,571)"/>
<path d="M0 0 C1.8253125 0.0309375 1.8253125 0.0309375 3.6875 0.0625 C2.4809375 1.0215625 2.4809375 1.0215625 1.25 2 C-0.5875504 3.46853502 -0.5875504 3.46853502 -2.3125 5.0625 C-3.79888992 5.21905027 -5.29199127 5.31316943 -6.78515625 5.37890625 C-7.68427734 5.42080078 -8.58339844 5.46269531 -9.50976562 5.50585938 C-10.92805664 5.56483398 -10.92805664 5.56483398 -12.375 5.625 C-13.32439453 5.66818359 -14.27378906 5.71136719 -15.25195312 5.75585938 C-17.60531353 5.86229276 -19.95878354 5.96431008 -22.3125 6.0625 C-22.3125 5.4025 -22.3125 4.7425 -22.3125 4.0625 C-25.2825 3.7325 -28.2525 3.4025 -31.3125 3.0625 C-31.3125 2.7325 -31.3125 2.4025 -31.3125 2.0625 C-30.67223877 2.03744385 -30.03197754 2.0123877 -29.37231445 1.98657227 C-26.45636274 1.8701454 -23.5406971 1.74763133 -20.625 1.625 C-19.61759766 1.58568359 -18.61019531 1.54636719 -17.57226562 1.50585938 C-16.59580078 1.46396484 -15.61933594 1.42207031 -14.61328125 1.37890625 C-13.71778564 1.34224854 -12.82229004 1.30559082 -11.8996582 1.26782227 C-7.8512862 0.94653503 -4.08370617 -0.06921536 0 0 Z " fill="#E8ECEF" transform="translate(553.3125,562.9375)"/>
<path d="M0 0 C2.31 0 4.62 0 7 0 C7.33 0.99 7.66 1.98 8 3 C11.96 3 15.92 3 20 3 C20 3.66 20 4.32 20 5 C18.48019531 5.07347656 18.48019531 5.07347656 16.9296875 5.1484375 C15.57810089 5.22352564 14.22653962 5.29907081 12.875 5.375 C12.20984375 5.4059375 11.5446875 5.436875 10.859375 5.46875 C6.59024333 5.71987539 2.99029733 6.48484362 -1 8 C-1.99 8.33 -2.98 8.66 -4 9 C-4 7.35 -4 5.7 -4 4 C-3.34 4 -2.68 4 -2 4 C-1.34 2.68 -0.68 1.36 0 0 Z " fill="#25436A" transform="translate(371,483)"/>
<path d="M0 0 C0.33 0.66 0.66 1.32 1 2 C2.32 1.67 3.64 1.34 5 1 C4.01 4.63 3.02 8.26 2 12 C2.66 12 3.32 12 4 12 C4 13.65 4 15.3 4 17 C-0.455 16.01 -0.455 16.01 -5 15 C-4.67 13.35 -4.34 11.7 -4 10 C-3.34 10 -2.68 10 -2 10 C-1.855625 8.906875 -1.71125 7.81375 -1.5625 6.6875 C-1 3 -1 3 0 0 Z " fill="#E9EEF2" transform="translate(492,484)"/>
<path d="M0 0 C0.33 0 0.66 0 1 0 C1 10.23 1 20.46 1 31 C0.34 29.68 -0.32 28.36 -1 27 C-1.66 26.67 -2.32 26.34 -3 26 C-2.85756403 23.33311371 -2.71113422 20.66654233 -2.5625 18 C-2.50352539 16.88431641 -2.50352539 16.88431641 -2.44335938 15.74609375 C-1.64642137 1.64642137 -1.64642137 1.64642137 0 0 Z " fill="#8CB783" transform="translate(287,509)"/>
<path d="M0 0 C3.29714793 0.32971479 4.6226839 0.6226839 7 3 C7.3125 5.5 7.3125 5.5 7 8 C4 10 4 10 1.4375 9.75 C-1 9 -1 9 -3 7 C-2.67028521 3.70285207 -2.3773161 2.3773161 0 0 Z " fill="#EEF2F4" transform="translate(441,506)"/>
<path d="M0 0 C0.33 0.66 0.66 1.32 1 2 C1.99 2.66 2.98 3.32 4 4 C3 5 3 5 0.86694336 5.11352539 C-0.04949951 5.10828857 -0.96594238 5.10305176 -1.91015625 5.09765625 C-2.89951172 5.09443359 -3.88886719 5.09121094 -4.90820312 5.08789062 C-5.94912109 5.07951172 -6.99003906 5.07113281 -8.0625 5.0625 C-9.10728516 5.05798828 -10.15207031 5.05347656 -11.22851562 5.04882812 C-13.8190666 5.03699913 -16.40950559 5.02051689 -19 5 C-18.67 4.01 -18.34 3.02 -18 2 C-15.93827387 1.66191314 -13.8755797 1.32972639 -11.8125 1 C-10.66394531 0.814375 -9.51539063 0.62875 -8.33203125 0.4375 C-5.49584607 0.06510523 -2.85280436 -0.08596021 0 0 Z " fill="#233F63" transform="translate(566,515)"/>
<path d="M0 0 C0.66 0 1.32 0 2 0 C1.6199557 4.79055847 1.20795655 9.46445121 0 14.125 C-1.24910758 19.22246109 -1.39977752 24.36609848 -1.5703125 29.59228516 C-1.7905017 34.7905017 -1.7905017 34.7905017 -4 37 C-5.25908199 28.07031188 -4.54326444 20.51087457 -2.5625 11.75 C-2.31951172 10.61175781 -2.07652344 9.47351563 -1.82617188 8.30078125 C-1.23247755 5.53020771 -0.62365331 2.76395451 0 0 Z " fill="#99BE91" transform="translate(282,539)"/>
<path d="M0 0 C-0.33 2.31 -0.66 4.62 -1 7 C-5.571279 6.45144652 -9.67435795 5.58255197 -14 4 C-14 3.01 -14 2.02 -14 1 C-9.23692563 0.04738513 -4.8333472 -0.08333357 0 0 Z " fill="#244065" transform="translate(491,487)"/>
<path d="M0 0 C0.33 0.99 0.66 1.98 1 3 C0.15695312 3.06058594 -0.68609375 3.12117188 -1.5546875 3.18359375 C-2.65039062 3.26738281 -3.74609375 3.35117187 -4.875 3.4375 C-6.51082031 3.55931641 -6.51082031 3.55931641 -8.1796875 3.68359375 C-10.94728971 3.83001703 -10.94728971 3.83001703 -13 5 C-13 3.68 -13 2.36 -13 1 C-16.43230448 1.26393501 -16.43230448 1.26393501 -20 2 C-20.99 3.485 -20.99 3.485 -22 5 C-22.66 5 -23.32 5 -24 5 C-19.88721489 -4.49104257 -8.48772762 -0.99230219 0 0 Z " fill="#375578" transform="translate(391,482)"/>
<path d="M0 0 C0.99 0.33 1.98 0.66 3 1 C3.09765625 7.15234375 3.09765625 7.15234375 3 9 C2 10 2 10 -0.5625 10.0625 C-1.366875 10.041875 -2.17125 10.02125 -3 10 C-2.25 2.25 -2.25 2.25 0 0 Z " fill="#233D5E" transform="translate(454,474)"/>
<path d="M0 0 C1.25127906 3.54667178 0.72285053 5.72253438 -0.4375 9.25 C-0.72496094 10.14203125 -1.01242187 11.0340625 -1.30859375 11.953125 C-1.53675781 12.62859375 -1.76492188 13.3040625 -2 14 C-2.66 14 -3.32 14 -4 14 C-4.33 10.37 -4.66 6.74 -5 3 C-3.35 2.01 -1.7 1.02 0 0 Z " fill="#1F3C5E" transform="translate(533,451)"/>
<path d="M0 0 C3.96 0 7.92 0 12 0 C11.67 1.32 11.34 2.64 11 4 C7.7 4 4.4 4 1 4 C0.67 2.68 0.34 1.36 0 0 Z " fill="#223E62" transform="translate(520,560)"/>
<path d="M0 0 C1.46067199 0.45082469 2.91848032 0.91093537 4.375 1.375 C5.18710937 1.63023437 5.99921875 1.88546875 6.8359375 2.1484375 C9 3 9 3 11 5 C10.34 5 9.68 5 9 5 C8.67 6.98 8.34 8.96 8 11 C4.31993178 7.61831569 2.0214155 4.57478244 0 0 Z " fill="#2A496D" transform="translate(434,571)"/>
<path d="M0 0 C0.33 0.66 0.66 1.32 1 2 C2.32 1.67 3.64 1.34 5 1 C4.01 3.97 3.02 6.94 2 10 C1.34 10 0.68 10 0 10 C-0.66 10.66 -1.32 11.32 -2 12 C-2.66 11.34 -3.32 10.68 -4 10 C-3.34 10 -2.68 10 -2 10 C-1.855625 8.906875 -1.71125 7.81375 -1.5625 6.6875 C-1 3 -1 3 0 0 Z " fill="#DBE1E8" transform="translate(492,484)"/>
<path d="M0 0 C2.475 0.495 2.475 0.495 5 1 C4.34 4.63 3.68 8.26 3 12 C1 11 1 11 0 8 C-0.12781786 5.32605036 -0.04391871 2.67904143 0 0 Z " fill="#375980" transform="translate(490,472)"/>
<path d="M0 0 C2.31 0.33 4.62 0.66 7 1 C7 2.32 7 3.64 7 5 C3.04 5 -0.92 5 -5 5 C-5 4.34 -5 3.68 -5 3 C-3.35 2.67 -1.7 2.34 0 2 C0 1.34 0 0.68 0 0 Z " fill="#203E63" transform="translate(584,443)"/>
<path d="M0 0 C1.53202706 0.25195908 3.05257128 0.57596777 4.5625 0.9375 C5.38878906 1.13214844 6.21507812 1.32679688 7.06640625 1.52734375 C8.02353516 1.76130859 8.02353516 1.76130859 9 2 C7.71567636 4.56864728 6.63365249 4.946539 4 6 C2.68 6 1.36 6 0 6 C-0.33 6.66 -0.66 7.32 -1 8 C-1.04241723 5.66705225 -1.04092937 3.33297433 -1 1 C-0.67 0.67 -0.34 0.34 0 0 Z " fill="#365171" transform="translate(457,458)"/>
<path d="M0 0 C0.33 0 0.66 0 1 0 C1.05383848 2.45862401 1.09359038 4.9160755 1.125 7.375 C1.14175781 8.07367187 1.15851563 8.77234375 1.17578125 9.4921875 C1.19344267 11.32897486 1.10303261 13.16601963 1 15 C0.34 15.66 -0.32 16.32 -1 17 C-1.22354607 15.10590022 -1.42819951 13.2095652 -1.625 11.3125 C-1.74101562 10.25675781 -1.85703125 9.20101562 -1.9765625 8.11328125 C-2.0010326 4.86283654 -1.40852563 2.89769204 0 0 Z " fill="#86B27E" transform="translate(279,559)"/>
<path d="M0 0 C0.66 0.99 1.32 1.98 2 3 C1.67 3.66 1.34 4.32 1 5 C-0.32 5 -1.64 5 -3 5 C-4.67016516 5.99414593 -6.33720673 6.9935725 -8 8 C-8.66 7.67 -9.32 7.34 -10 7 C-9.5 5.0625 -9.5 5.0625 -8 3 C-5.30341548 2.31209578 -2.7982981 2.18053536 0 2 C0 1.34 0 0.68 0 0 Z " fill="#223F5F" transform="translate(455,580)"/>
<path d="M0 0 C-0.33 0.99 -0.66 1.98 -1 3 C-5.62 3 -10.24 3 -15 3 C-15 2.34 -15 1.68 -15 1 C-9.91913204 0.15318867 -5.15171623 -0.09038099 0 0 Z " fill="#1C395D" transform="translate(495,501)"/>
<path d="M0 0 C2.31 0 4.62 0 7 0 C7.66 1.32 8.32 2.64 9 4 C4.99799622 5.60080151 1.95443764 4.29279692 -2 3 C-1.34 2.67 -0.68 2.34 0 2 C0 1.34 0 0.68 0 0 Z " fill="#3B597C" transform="translate(511,498)"/>
<path d="M0 0 C3.96 0.99 3.96 0.99 8 2 C7 4 7 4 4.125 5.0625 C3.09375 5.371875 2.0625 5.68125 1 6 C0.01 6.33 -0.98 6.66 -2 7 C-2 5.35 -2 3.7 -2 2 C-1.34 2 -0.68 2 0 2 C0 1.34 0 0.68 0 0 Z " fill="#1E395C" transform="translate(369,485)"/>
<path d="M0 0 C4.95 0.33 9.9 0.66 15 1 C14.67 1.66 14.34 2.32 14 3 C9.38 3 4.76 3 0 3 C0 2.01 0 1.02 0 0 Z " fill="#1F3B5F" transform="translate(615,445)"/>
<path d="M0 0 C0.66 0 1.32 0 2 0 C1.49933555 4.33909187 -1.2920918 6.75051016 -4 10 C-4.85279338 12.21735439 -4.85279338 12.21735439 -5 14 C-5.66 14 -6.32 14 -7 14 C-6.43450607 10.06946815 -5.28617442 7.46592463 -3.0625 4.1875 C-2.53785156 3.39730469 -2.01320312 2.60710938 -1.47265625 1.79296875 C-0.98667969 1.20128906 -0.50070313 0.60960937 0 0 Z " fill="#89B584" transform="translate(205,715)"/>
<path d="M0 0 C1.23556641 0.01740234 1.23556641 0.01740234 2.49609375 0.03515625 C3.32238281 0.04417969 4.14867187 0.05320312 5 0.0625 C5.63808594 0.07410156 6.27617188 0.08570313 6.93359375 0.09765625 C6.60359375 1.41765625 6.27359375 2.73765625 5.93359375 4.09765625 C3.62359375 4.09765625 1.31359375 4.09765625 -1.06640625 4.09765625 C-1.06640625 3.43765625 -1.06640625 2.77765625 -1.06640625 2.09765625 C-1.72640625 1.76765625 -2.38640625 1.43765625 -3.06640625 1.09765625 C-2.06640625 0.09765625 -2.06640625 0.09765625 0 0 Z " fill="#234164" transform="translate(541.06640625,559.90234375)"/>
<path d="M0 0 C0.66 0 1.32 0 2 0 C2.33 3.3 2.66 6.6 3 10 C2.01 10 1.02 10 0 10 C-2 7 -2 7 -1.6875 4.4375 C-1 2 -1 2 0 0 Z " fill="#254164" transform="translate(590,494)"/>
<path d="M0 0 C2.20914 3.31371 2.22481553 4.3446021 2.125 8.1875 C2.10695313 9.08855469 2.08890625 9.98960937 2.0703125 10.91796875 C2.03550781 11.94857422 2.03550781 11.94857422 2 13 C1.01 13 0.02 13 -1 13 C-2.07310858 9.72814447 -1.89263102 7.57052408 -1.0625 4.25 C-0.86785156 3.45078125 -0.67320312 2.6515625 -0.47265625 1.828125 C-0.31667969 1.22484375 -0.16070313 0.6215625 0 0 Z " fill="#E9EDF0" transform="translate(527,568)"/>
<path d="M0 0 C2.97 0 5.94 0 9 0 C8.67 3.96 8.34 7.92 8 12 C7.67 12 7.34 12 7 12 C6.67 8.7 6.34 5.4 6 2 C4.35 2 2.7 2 1 2 C0.67 1.34 0.34 0.68 0 0 Z " fill="#224167" transform="translate(482,470)"/>
<path d="M0 0 C0.99 0.33 1.98 0.66 3 1 C2.67386719 1.51949219 2.34773437 2.03898438 2.01171875 2.57421875 C-0.36176368 6.36198865 -2.71775284 10.15621531 -5 14 C-6 11 -6 11 -4.78515625 8.30078125 C-4.21667969 7.31464844 -3.64820313 6.32851563 -3.0625 5.3125 C-2.49660156 4.31863281 -1.93070313 3.32476563 -1.34765625 2.30078125 C-0.90292969 1.54152344 -0.45820313 0.78226563 0 0 Z " fill="#8CB886" transform="translate(251,636)"/>
<path d="M0 0 C2.64 0 5.28 0 8 0 C7.34 1.32 6.68 2.64 6 4 C3.69 3.67 1.38 3.34 -1 3 C-0.67 2.01 -0.34 1.02 0 0 Z " fill="#3B5879" transform="translate(501,434)"/>
<path d="M0 0 C0.66 0 1.32 0 2 0 C1.38801624 3.43950364 0.07941153 5.51564485 -2.0625 8.25 C-2.61035156 8.95640625 -3.15820312 9.6628125 -3.72265625 10.390625 C-4.14417969 10.92171875 -4.56570312 11.4528125 -5 12 C-5.33 11.34 -5.66 10.68 -6 10 C-4.85546875 7.6171875 -4.85546875 7.6171875 -3.1875 4.875 C-2.64480469 3.96492187 -2.10210937 3.05484375 -1.54296875 2.1171875 C-1.03378906 1.41851563 -0.52460938 0.71984375 0 0 Z " fill="#8BB785" transform="translate(230,674)"/>
<path d="M0 0 C1.1351555 3.4054665 0.84899821 4.31723087 -0.25 7.625 C-0.62898438 8.81996094 -0.62898438 8.81996094 -1.015625 10.0390625 C-2 12 -2 12 -5 13 C-4.44516583 8.33939297 -3.45003386 3.45003386 0 0 Z " fill="#8FB887" transform="translate(266,603)"/>
<path d="M0 0 C2.64 0 5.28 0 8 0 C6.515 1.98 6.515 1.98 5 4 C2.03 3.505 2.03 3.505 -1 3 C-0.67 2.01 -0.34 1.02 0 0 Z " fill="#264161" transform="translate(499,584)"/>
<path d="M0 0 C1.32 0 2.64 0 4 0 C4 1.32 4 2.64 4 4 C2.741875 3.87625 1.48375 3.7525 0.1875 3.625 C-0.87404297 3.52058594 -0.87404297 3.52058594 -1.95703125 3.4140625 C-4 3 -4 3 -7 1 C-5.5459375 1.0309375 -5.5459375 1.0309375 -4.0625 1.0625 C-1.12534105 1.35618499 -1.12534105 1.35618499 0 0 Z " fill="#496180" transform="translate(513,410)"/>
<path d="M0 0 C0.33 0.66 0.66 1.32 1 2 C-0.65909182 6.10406925 -2.21704034 8.65195608 -6 11 C-4.54955729 6.89041233 -2.48889248 3.56741255 0 0 Z " fill="#87B381" transform="translate(215,699)"/>
<path d="M0 0 C2.64 0 5.28 0 8 0 C7.01 1.485 7.01 1.485 6 3 C2.875 3.1875 2.875 3.1875 0 3 C0 2.01 0 1.02 0 0 Z " fill="#1D395C" transform="translate(420,512)"/>
<path d="M0 0 C0.99 0.33 1.98 0.66 3 1 C3.125 3.875 3.125 3.875 3 7 C2.34 7.66 1.68 8.32 1 9 C-0.4783226 6.04335481 -0.06032783 3.25770263 0 0 Z " fill="#213C5C" transform="translate(609,480)"/>
<path d="M0 0 C3.625 -0.1875 3.625 -0.1875 7 0 C5.3125 2.0625 5.3125 2.0625 3 4 C0.25 3.75 0.25 3.75 -2 3 C-1.34 2.01 -0.68 1.02 0 0 Z " fill="#264366" transform="translate(509,408)"/>
<path d="M0 0 C2.64 0.33 5.28 0.66 8 1 C4.55549263 3.29633824 2.06187717 3.54016485 -2 4 C-1.34 2.68 -0.68 1.36 0 0 Z " fill="#3A5879" transform="translate(455,490)"/>
<path d="M0 0 C2.31 0 4.62 0 7 0 C6.67 1.32 6.34 2.64 6 4 C3.83125748 3.49396008 2.00032373 3.00016187 0 2 C0 1.34 0 0.68 0 0 Z " fill="#203D60" transform="translate(625,464)"/>
<path d="M0 0 C0.99 0.33 1.98 0.66 3 1 C3 1.66 3 2.32 3 3 C2.34 3 1.68 3 1 3 C0.67 6.63 0.34 10.26 0 14 C-0.33 14 -0.66 14 -1 14 C-1.027193 12.41676312 -1.04648306 10.83338938 -1.0625 9.25 C-1.07410156 8.36828125 -1.08570313 7.4865625 -1.09765625 6.578125 C-1.00826198 4.2181162 -0.66912821 2.25501476 0 0 Z " fill="#5E758F" transform="translate(561,428)"/>
<path d="M0 0 C0.33 0 0.66 0 1 0 C1 1.65 1 3.3 1 5 C2.32 4.34 3.64 3.68 5 3 C5 3.66 5 4.32 5 5 C5.66 5.33 6.32 5.66 7 6 C4.69 6.66 2.38 7.32 0 8 C0 5.36 0 2.72 0 0 Z " fill="#445C76" transform="translate(366,487)"/>
<path d="M0 0 C0.99 0 1.98 0 3 0 C2.67 1.98 2.34 3.96 2 6 C1.01 6 0.02 6 -1 6 C-0.67 4.02 -0.34 2.04 0 0 Z " fill="#1D395B" transform="translate(478,559)"/>
<path d="M0 0 C0 3 0 3 0 3 Z M-5 5 C-4.34 5.33 -3.68 5.66 -3 6 C-3 6.99 -3 7.98 -3 9 C-4.65 9 -6.3 9 -8 9 C-8 8.34 -8 7.68 -8 7 C-7.01 6.34 -6.02 5.68 -5 5 Z " fill="#375174" transform="translate(585,502)"/>
<path d="M0 0 C0.66 0 1.32 0 2 0 C1.34 3.3 0.68 6.6 0 10 C-0.66 9.34 -1.32 8.68 -2 8 C-1.63723355 5.17042171 -0.90305236 2.70915709 0 0 Z " fill="#395578" transform="translate(538,481)"/>
<path d="M0 0 C0.66 0 1.32 0 2 0 C2 2.64 2 5.28 2 8 C1.01 8 0.02 8 -1 8 C-0.67 5.36 -0.34 2.72 0 0 Z " fill="#385170" transform="translate(454,467)"/>
<path d="M0 0 C0.66 0.33 1.32 0.66 2 1 C2.1875 3.3125 2.1875 3.3125 2 6 C1.01 6.99 0.02 7.98 -1 9 C-0.67 6.03 -0.34 3.06 0 0 Z " fill="#93BB8B" transform="translate(276,568)"/>
<path d="M0 0 C0.66 0.66 1.32 1.32 2 2 C1.96712417 4.72869407 1.43602229 7.2966618 1 10 C0.67 10 0.34 10 0 10 C-0.19412181 8.52168779 -0.38012131 7.04230684 -0.5625 5.5625 C-0.66691406 4.73878906 -0.77132812 3.91507813 -0.87890625 3.06640625 C-0.91886719 2.38449219 -0.95882812 1.70257812 -1 1 C-0.67 0.67 -0.34 0.34 0 0 Z " fill="#1C3C61" transform="translate(602,511)"/>
<path d="M0 0 C-0.33 1.32 -0.66 2.64 -1 4 C-2.98 3.34 -4.96 2.68 -7 2 C-4 0 -4 0 0 0 Z " fill="#39587B" transform="translate(397,499)"/>
<path d="M0 0 C1.98 0.495 1.98 0.495 4 1 C2.63016497 4.16115776 2.0109362 4.9927092 -1 7 C-0.67 4.69 -0.34 2.38 0 0 Z " fill="#375576" transform="translate(474,439)"/>
<path d="M0 0 C1.45792884 -0.05399736 2.91642712 -0.09279177 4.375 -0.125 C5.18710937 -0.14820313 5.99921875 -0.17140625 6.8359375 -0.1953125 C9 0 9 0 11 2 C6.99799622 3.60080151 3.95443764 2.29279692 0 1 C0 0.67 0 0.34 0 0 Z " fill="#224066" transform="translate(436,487)"/>
<path d="M0 0 C0.66 0 1.32 0 2 0 C2.36923077 4.55384615 2.36923077 4.55384615 0.5 6.8125 C0.005 7.204375 -0.49 7.59625 -1 8 C-1.125 2.25 -1.125 2.25 0 0 Z " fill="#203E60" transform="translate(503,475)"/>
</svg>
